<svg version="1.1" xmlns="http://www.w3.org/2000/svg" height="1440" width="1060"><g transform="translate(0 0)"><g transform="translate(10 10)"><path d="M 7.5 0 L 52.5 0 A 7.5 7.5 0 0 1 52.5 15 L 7.5 15 A 7.5 7.5 0 0 1 7.5 0" fill="white" stroke="#000000"/><text x="5" y="10" fill="#000000" font-size="10" font-family="sans-serif">start</text></g><g transform="translate(80 60)"><path d="M 0 20 L 40 0 L 80 20 L 40 40 z" fill="#CCCCFF" stroke="#000000"/><text x="20" y="15" fill="#000000" font-size="10" font-family="sans-serif">onEnter</text><text x="20" y="25" font-size="10" font-family="sans-serif">(Enter)</text></g><g><path d="M 40 25 L 40 60 A 20 20 0 0 0 60 80 L 80 80" fill="none" stroke="black"/><path d="M 80 80 L 70 75 L 70 85 Z"/><text x="45" y="55" font-size="10" font-family="sans-serif"/></g><g transform="translate(160 120)"><path d="M 0 20 L 40 0 L 80 20 L 40 40 z" fill="#CCCCFF" stroke="#000000"/><text x="20" y="15" fill="#000000" font-size="10" font-family="sans-serif">loadHistory</text><text x="20" y="25" font-size="10" font-family="sans-serif">(Load history data)</text></g><g><path d="M 120 100 L 120 120 A 20 20 0 0 0 140 140 L 160 140" fill="none" stroke="black"/><path d="M 160 140 L 150 135 L 150 145 Z"/><text x="125" y="105" font-size="10" font-family="sans-serif"><tspan x="125" dy="10">to-next</tspan></text></g><g transform="translate(240 180)"><path d="M 0 20 L 40 0 L 80 20 L 40 40 z" fill="#CCCCFF" stroke="#000000"/><text x="20" y="15" fill="#000000" font-size="10" font-family="sans-serif">doFraudmonConfirm</text><text x="20" y="25" font-size="10" font-family="sans-serif">(Do fraudmon confirm)</text></g><g><path d="M 200 160 L 200 180 A 20 20 0 0 0 220 200 L 240 200" fill="none" stroke="black"/><path d="M 240 200 L 230 195 L 230 205 Z"/><text x="205" y="165" font-size="10" font-family="sans-serif"><tspan x="205" dy="10">to-next</tspan></text></g><g transform="translate(320 240)"><path d="M 0 20 L 40 0 L 80 20 L 40 40 z" fill="#CCCCFF" stroke="#000000"/><text x="20" y="15" fill="#000000" font-size="10" font-family="sans-serif">prepareDataForNext</text><text x="20" y="25" font-size="10" font-family="sans-serif">(Store data for print)</text></g><g><path d="M 280 220 L 280 240 A 20 20 0 0 0 300 260 L 320 260" fill="none" stroke="black"/><path d="M 320 260 L 310 255 L 310 265 Z"/><text x="285" y="225" font-size="10" font-family="sans-serif"><tspan x="285" dy="10">to-next</tspan></text></g><g transform="translate(400 300)"><rect x="0" y="0" width="80" height="40" rx="2.5" ry="2.5" fill="#CCCCFF" stroke="#000000"/><text x="5" y="15" fill="#000000" font-size="10" font-family="sans-serif">showReceipt</text><text x="5" y="25" font-size="10" font-family="sans-serif">(Show receipt)</text></g><g><path d="M 360 280 L 360 300 A 20 20 0 0 0 380 320 L 400 320" fill="none" stroke="black"/><path d="M 400 320 L 390 315 L 390 325 Z"/><text x="365" y="285" font-size="10" font-family="sans-serif"><tspan x="365" dy="10">to-next</tspan></text></g><g transform="translate(480 360)"><path d="M 7.5 0 L 52.5 0 A 7.5 7.5 0 0 1 52.5 15 L 7.5 15 A 7.5 7.5 0 0 1 7.5 0" fill="white" stroke="#000000"/><text x="5" y="10" fill="#000000" font-size="10" font-family="sans-serif">end</text></g><g><path d="M 440 340 L 440 347.5 A 20 20 0 0 0 460 367.5 L 480 367.5" fill="none" stroke="black"/><path d="M 480 367.5 L 470 362.5 L 470 372.5 Z"/><text x="445" y="345" font-size="10" font-family="sans-serif"><tspan x="445" dy="10">to-end</tspan></text></g><g transform="translate(480 420)"><path d="M 0 20 L 40 0 L 80 20 L 40 40 z" fill="#CCCCFF" stroke="#000000"/><text x="20" y="15" fill="#000000" font-size="10" font-family="sans-serif">reloadData</text><text x="20" y="25" font-size="10" font-family="sans-serif">(Reload data if changed)</text></g><g><path d="M 440 340 L 440 420 A 20 20 0 0 0 460 440 L 480 440" fill="none" stroke="black"/><path d="M 480 440 L 470 435 L 470 445 Z"/><text x="445" y="395" font-size="10" font-family="sans-serif"><tspan x="445" dy="10">to-reload,</tspan><tspan x="445" dy="10">to-next</tspan></text></g><g><path d="M 520 420 A 20 10 0 0 1 540 410 L 560 410 A 20 20 0 0 0 580 390 L 580 340 A 20 20 0 0 0 560 320 L 480 320" fill="none" stroke="black"/><path d="M 480 320 L 490 315 L 490 325 z" fill="black" stroke="black"/><text x="585" y="330" font-size="10" font-family="sans-serif"><tspan x="585" dy="10">to-next</tspan></text></g><g transform="translate(560 480)"><path d="M 0 20 L 40 0 L 80 20 L 40 40 z" fill="#CCCCFF" stroke="#000000"/><text x="20" y="15" fill="#000000" font-size="10" font-family="sans-serif">showDefaultError</text><text x="20" y="25" font-size="10" font-family="sans-serif">(Show error)</text></g><g><path d="M 520 460 L 520 480 A 20 20 0 0 0 540 500 L 560 500" fill="none" stroke="black"/><path d="M 560 500 L 550 495 L 550 505 Z"/><text x="525" y="465" font-size="10" font-family="sans-serif"><tspan x="525" dy="10">to-error</tspan></text></g><g transform="translate(640 540)"><path d="M 7.5 0 L 52.5 0 A 7.5 7.5 0 0 1 52.5 15 L 7.5 15 A 7.5 7.5 0 0 1 7.5 0" fill="white" stroke="#000000"/><text x="5" y="10" fill="#000000" font-size="10" font-family="sans-serif">end</text></g><g><path d="M 600 520 L 600 527.5 A 20 20 0 0 0 620 547.5 L 640 547.5" fill="none" stroke="black"/><path d="M 640 547.5 L 630 542.5 L 630 552.5 Z"/><text x="605" y="525" font-size="10" font-family="sans-serif"><tspan x="605" dy="10">to-end</tspan></text></g><g transform="translate(480 600)"><path d="M 0 20 L 40 0 L 80 20 L 40 40 z" fill="#CCCCFF" stroke="#000000"/><text x="20" y="15" fill="#000000" font-size="10" font-family="sans-serif">processStornoError</text><text x="20" y="25" font-size="10" font-family="sans-serif"></text></g><g><path d="M 440 340 L 440 600 A 20 20 0 0 0 460 620 L 480 620" fill="none" stroke="black"/><path d="M 480 620 L 470 615 L 470 625 Z"/><text x="445" y="585" font-size="10" font-family="sans-serif"><tspan x="445" dy="10">to-error</tspan></text></g><g transform="translate(560 660)"><path d="M 0 20 L 40 0 L 80 20 L 40 40 z" fill="#CCCCFF" stroke="#000000"/><text x="20" y="15" fill="#000000" font-size="10" font-family="sans-serif">showInvalidInputParamsError</text><text x="20" y="25" font-size="10" font-family="sans-serif">(Show fraudmon error)</text></g><g><path d="M 520 640 L 520 660 A 20 20 0 0 0 540 680 L 560 680" fill="none" stroke="black"/><path d="M 560 680 L 550 675 L 550 685 Z"/><text x="525" y="645" font-size="10" font-family="sans-serif"><tspan x="525" dy="10">to-invalid-input-params</tspan></text></g><g transform="translate(640 720)"><path d="M 7.5 0 L 52.5 0 A 7.5 7.5 0 0 1 52.5 15 L 7.5 15 A 7.5 7.5 0 0 1 7.5 0" fill="white" stroke="#000000"/><text x="5" y="10" fill="#000000" font-size="10" font-family="sans-serif">end</text></g><g><path d="M 600 700 L 600 707.5 A 20 20 0 0 0 620 727.5 L 640 727.5" fill="none" stroke="black"/><path d="M 640 727.5 L 630 722.5 L 630 732.5 Z"/><text x="605" y="705" font-size="10" font-family="sans-serif"><tspan x="605" dy="10">to-end</tspan></text></g><g><path d="M 520 600 A 20 10 0 0 1 540 590 L 720 590 A 20 20 0 0 0 740 570 L 740 520 A 20 20 0 0 0 720 500 L 640 500" fill="none" stroke="black"/><path d="M 640 500 L 650 495 L 650 505 z" fill="black" stroke="black"/><text x="745" y="510" font-size="10" font-family="sans-serif"><tspan x="745" dy="10">to-error</tspan></text></g><g transform="translate(560 780)"><path d="M 0 20 L 40 0 L 80 20 L 40 40 z" fill="#CCCCFF" stroke="#000000"/><text x="20" y="15" fill="#000000" font-size="10" font-family="sans-serif">showFeatureOff</text><text x="20" y="25" font-size="10" font-family="sans-serif">(Show service off error)</text></g><g><path d="M 520 640 L 520 780 A 20 20 0 0 0 540 800 L 560 800" fill="none" stroke="black"/><path d="M 560 800 L 550 795 L 550 805 Z"/><text x="525" y="765" font-size="10" font-family="sans-serif"><tspan x="525" dy="10">to-feature-off</tspan></text></g><g transform="translate(640 840)"><path d="M 7.5 0 L 52.5 0 A 7.5 7.5 0 0 1 52.5 15 L 7.5 15 A 7.5 7.5 0 0 1 7.5 0" fill="white" stroke="#000000"/><text x="5" y="10" fill="#000000" font-size="10" font-family="sans-serif">end</text></g><g><path d="M 600 820 L 600 827.5 A 20 20 0 0 0 620 847.5 L 640 847.5" fill="none" stroke="black"/><path d="M 640 847.5 L 630 842.5 L 630 852.5 Z"/><text x="605" y="825" font-size="10" font-family="sans-serif"><tspan x="605" dy="10">to-end</tspan></text></g><g transform="translate(560 900)"><path d="M 0 20 L 40 0 L 80 20 L 40 40 z" fill="#CCCCFF" stroke="#000000"/><text x="20" y="15" fill="#000000" font-size="10" font-family="sans-serif">showTechBreakError</text><text x="20" y="25" font-size="10" font-family="sans-serif">(Show not found error)</text></g><g><path d="M 520 640 L 520 900 A 20 20 0 0 0 540 920 L 560 920" fill="none" stroke="black"/><path d="M 560 920 L 550 915 L 550 925 Z"/><text x="525" y="885" font-size="10" font-family="sans-serif"><tspan x="525" dy="10">to-show-tb-error</tspan></text></g><g transform="translate(640 960)"><path d="M 7.5 0 L 52.5 0 A 7.5 7.5 0 0 1 52.5 15 L 7.5 15 A 7.5 7.5 0 0 1 7.5 0" fill="white" stroke="#000000"/><text x="5" y="10" fill="#000000" font-size="10" font-family="sans-serif">end</text></g><g><path d="M 600 940 L 600 947.5 A 20 20 0 0 0 620 967.5 L 640 967.5" fill="none" stroke="black"/><path d="M 640 967.5 L 630 962.5 L 630 972.5 Z"/><text x="605" y="945" font-size="10" font-family="sans-serif"><tspan x="605" dy="10">to-end</tspan></text></g><g transform="translate(480 1020)"><path d="M 0 20 L 40 0 L 80 20 L 40 40 z" fill="#CCCCFF" stroke="#000000"/><text x="20" y="15" fill="#000000" font-size="10" font-family="sans-serif">showReceiptAgain</text><text x="20" y="25" font-size="10" font-family="sans-serif">(stub step showReceipt)</text></g><g><path d="M 440 340 L 440 1020 A 20 20 0 0 0 460 1040 L 480 1040" fill="none" stroke="black"/><path d="M 480 1040 L 470 1035 L 470 1045 Z"/><text x="445" y="1005" font-size="10" font-family="sans-serif"><tspan x="445" dy="10">to-back</tspan></text></g><g><path d="M 520 1020 A 20 10 0 0 1 540 1010 L 800 1010 A 20 20 0 0 0 820 990 L 820 340 A 20 20 0 0 0 800 320 L 480 320" fill="none" stroke="black"/><path d="M 480 320 L 490 315 L 490 325 z" fill="black" stroke="black"/><text x="825" y="330" font-size="10" font-family="sans-serif"><tspan x="825" dy="10">to-next</tspan></text></g><g transform="translate(480 1080)"><path d="M 0 0 L 70 0 L 80 20 L 70 40 L 0 40 z" fill="#CCCCFF" stroke="#000000"/><text x="5" y="15" fill="#000000" font-size="10" font-family="sans-serif">#StornoCard</text><text x="5" y="25" font-size="10" font-family="NaN"></text></g><g><path d="M 440 340 L 440 1080 A 20 20 0 0 0 460 1100 L 480 1100" fill="none" stroke="black"/><path d="M 480 1100 L 470 1095 L 470 1105 Z"/><text x="445" y="1065" font-size="10" font-family="sans-serif"><tspan x="445" dy="10">stornoCard</tspan></text></g><g><path d="M 520 1080 A 20 10 0 0 1 540 1070 L 880 1070 A 20 20 0 0 0 900 1050 L 900 340 A 20 20 0 0 0 880 320 L 480 320" fill="none" stroke="black"/><path d="M 480 320 L 490 315 L 490 325 z" fill="black" stroke="black"/><text x="905" y="330" font-size="10" font-family="sans-serif"><tspan x="905" dy="10">#return</tspan></text></g><g transform="translate(480 1140)"><path d="M 0 0 L 70 0 L 80 20 L 70 40 L 0 40 z" fill="#CCCCFF" stroke="#000000"/><text x="5" y="15" fill="#000000" font-size="10" font-family="sans-serif">#StornoCash</text><text x="5" y="25" font-size="10" font-family="NaN"></text></g><g><path d="M 440 340 L 440 1140 A 20 20 0 0 0 460 1160 L 480 1160" fill="none" stroke="black"/><path d="M 480 1160 L 470 1155 L 470 1165 Z"/><text x="445" y="1125" font-size="10" font-family="sans-serif"><tspan x="445" dy="10">stornoCash</tspan></text></g><g><path d="M 520 1140 A 20 10 0 0 1 540 1130 L 960 1130 A 20 20 0 0 0 980 1110 L 980 340 A 20 20 0 0 0 960 320 L 480 320" fill="none" stroke="black"/><path d="M 480 320 L 490 315 L 490 325 z" fill="black" stroke="black"/><text x="985" y="330" font-size="10" font-family="sans-serif"><tspan x="985" dy="10">#return</tspan></text></g><g><path d="M 360 280 L 360 480 A 20 20 0 0 0 380 500 L 560 500" fill="none" stroke="black"/><path d="M 560 500 L 550 495 L 550 505 Z"/><text x="365" y="465" font-size="10" font-family="sans-serif"><tspan x="365" dy="10">to-error</tspan></text></g><g transform="translate(320 1200)"><path d="M 0 20 L 40 0 L 80 20 L 40 40 z" fill="#CCCCFF" stroke="#000000"/><text x="20" y="15" fill="#000000" font-size="10" font-family="sans-serif">showFraudmonError</text><text x="20" y="25" font-size="10" font-family="sans-serif">(Show fraudmon error)</text></g><g><path d="M 280 220 L 280 1200 A 20 20 0 0 0 300 1220 L 320 1220" fill="none" stroke="black"/><path d="M 320 1220 L 310 1215 L 310 1225 Z"/><text x="285" y="1185" font-size="10" font-family="sans-serif"><tspan x="285" dy="10">to-error</tspan></text></g><g transform="translate(400 1260)"><path d="M 7.5 0 L 52.5 0 A 7.5 7.5 0 0 1 52.5 15 L 7.5 15 A 7.5 7.5 0 0 1 7.5 0" fill="white" stroke="#000000"/><text x="5" y="10" fill="#000000" font-size="10" font-family="sans-serif">end</text></g><g><path d="M 360 1240 L 360 1247.5 A 20 20 0 0 0 380 1267.5 L 400 1267.5" fill="none" stroke="black"/><path d="M 400 1267.5 L 390 1262.5 L 390 1272.5 Z"/><text x="365" y="1245" font-size="10" font-family="sans-serif"><tspan x="365" dy="10">to-end</tspan></text></g><g transform="translate(240 1320)"><path d="M 0 20 L 40 0 L 80 20 L 40 40 z" fill="#CCCCFF" stroke="#000000"/><text x="20" y="15" fill="#000000" font-size="10" font-family="sans-serif">showHistoryNotFoundError</text><text x="20" y="25" font-size="10" font-family="sans-serif">(Show error)</text></g><g><path d="M 200 160 L 200 1320 A 20 20 0 0 0 220 1340 L 240 1340" fill="none" stroke="black"/><path d="M 240 1340 L 230 1335 L 230 1345 Z"/><text x="205" y="1305" font-size="10" font-family="sans-serif"><tspan x="205" dy="10">to-error</tspan></text></g><g transform="translate(320 1380)"><path d="M 7.5 0 L 52.5 0 A 7.5 7.5 0 0 1 52.5 15 L 7.5 15 A 7.5 7.5 0 0 1 7.5 0" fill="white" stroke="#000000"/><text x="5" y="10" fill="#000000" font-size="10" font-family="sans-serif">end</text></g><g><path d="M 280 1360 L 280 1367.5 A 20 20 0 0 0 300 1387.5 L 320 1387.5" fill="none" stroke="black"/><path d="M 320 1387.5 L 310 1382.5 L 310 1392.5 Z"/><text x="285" y="1365" font-size="10" font-family="sans-serif"><tspan x="285" dy="10">to-end</tspan></text></g><g><path d="M 120 100 L 120 660 A 20 20 0 0 0 140 680 L 560 680" fill="none" stroke="black"/><path d="M 560 680 L 550 675 L 550 685 Z"/><text x="125" y="645" font-size="10" font-family="sans-serif"><tspan x="125" dy="10">to-error</tspan></text></g><g><path d="M 120 100 L 120 780 A 20 20 0 0 0 140 800 L 560 800" fill="none" stroke="black"/><path d="M 560 800 L 550 795 L 550 805 Z"/><text x="125" y="765" font-size="10" font-family="sans-serif"><tspan x="125" dy="10">to-feature-off</tspan></text></g></g></svg>